<svg width="32" height="32" viewBox="0 0 32 32" fill="none" xmlns="http://www.w3.org/2000/svg">
<path d="M14.3102 24C13.8492 23.2029 12.9874 22.6667 12.0003 22.6667C11.5146 22.6667 11.0592 22.7965 10.667 23.0234M14.3102 24C14.5371 24.3922 14.667 24.8476 14.667 25.3333C14.667 26.8061 13.4731 28 12.0003 28C10.5276 28 9.33366 26.8061 9.33366 25.3333C9.33366 24.3463 9.86992 23.4845 10.667 23.0234M14.3102 24H21.6904M21.6904 24C21.4635 24.3922 21.3337 24.8476 21.3337 25.3333C21.3337 26.8061 22.5276 28 24.0003 28C25.4731 28 26.667 26.8061 26.667 25.3333C26.667 23.8606 25.4731 22.6667 24.0003 22.6667C23.0133 22.6667 22.1515 23.2029 21.6904 24ZM10.667 23.0234L9.75091 20M2.66699 5.33333H4.50273C5.76401 5.33333 6.8528 6.21699 7.11233 7.45128L7.50806 9.33333M9.75091 20L24.7679 17.6327C25.902 17.4539 26.7943 16.5694 26.9831 15.437L27.4828 12.4384C27.7537 10.813 26.5003 9.33333 24.8524 9.33333H7.50806M9.75091 20L7.50806 9.33333" stroke="#2C2D2E" stroke-width="2" stroke-linecap="round" stroke-linejoin="round"/>
</svg>
